<?xml version="1.0" standalone="no"?><!DOCTYPE svg PUBLIC "-//W3C//DTD SVG 1.1//EN" "http://www.w3.org/Graphics/SVG/1.1/DTD/svg11.dtd"><svg class="icon" width="200px" height="200.00px" viewBox="0 0 1024 1024" version="1.1" xmlns="http://www.w3.org/2000/svg"><path fill="#bfcbd9" d="M186.2656 788.0704h-21.76c-58.9312 0-106.9056-47.9744-106.9056-106.9056V253.3888c0-58.9312 47.9744-106.9056 106.9056-106.9056h353.9456c54.4768 0 98.816 44.3392 98.816 98.816v6.5536h175.0016c24.3712 0 47.36 11.8784 61.4912 31.744L968.192 444.416c9.1648 12.8512 13.9776 28.0064 13.9776 43.776v215.7568c0 41.6256-33.8944 75.52-75.52 75.52h-16.384v-61.44h16.384c7.7312 0 14.08-6.2976 14.08-14.08V488.1408c0-2.9184-0.9216-5.7856-2.6112-8.1408l-114.432-160.8192a14.07488 14.07488 0 0 0-11.4688-5.888h-236.4416V245.2992c0-20.6336-16.7936-37.376-37.376-37.376H164.5056c-25.088 0-45.4656 20.3776-45.4656 45.4656v427.776c0 25.088 20.3776 45.4656 45.4656 45.4656h21.76v61.44z"  /><path fill="#bfcbd9" d="M461.824 734.976H619.52v61.44H461.824zM860.2624 528.9984H659.968V344.9344h117.7088l82.6368 113.5104v70.5536z m-138.8544-61.44h69.4784l-44.4928-61.1328h-24.9856v61.1328z"  /><path fill="#bfcbd9" d="M329.6256 906.2912c-81.408 0-147.6608-66.2528-147.6608-147.6608s66.2528-147.6608 147.6608-147.6608 147.6608 66.2528 147.6608 147.6608-66.2016 147.6608-147.6608 147.6608z m0-233.8816c-47.5648 0-86.2208 38.656-86.2208 86.2208s38.7072 86.2208 86.2208 86.2208 86.2208-38.7072 86.2208-86.2208-38.656-86.2208-86.2208-86.2208zM750.4384 906.2912c-81.408 0-147.6608-66.2528-147.6608-147.6608s66.2528-147.6608 147.6608-147.6608 147.6608 66.2528 147.6608 147.6608-66.2016 147.6608-147.6608 147.6608z m0-233.8816c-47.5648 0-86.2208 38.656-86.2208 86.2208s38.7072 86.2208 86.2208 86.2208 86.2208-38.7072 86.2208-86.2208-38.656-86.2208-86.2208-86.2208zM230.4512 407.9616h-61.44V304.5888c0-20.2752 16.5376-36.8128 36.8128-36.8128h265.472v61.44H230.4512v78.7456z"  /></svg>